<svg width="35" height="35" viewBox="0 0 35 35" fill="none" xmlns="http://www.w3.org/2000/svg">
<path d="M21.4063 2.49998C22.6152 2.50008 23.7804 2.95238 24.6728 3.76797C25.5651 4.58355 26.1202 5.70343 26.2288 6.90748C27.3314 7.0271 28.374 7.47 29.2256 8.18051C30.0772 8.89102 30.6998 9.83742 31.015 10.9007C31.3303 11.9641 31.3242 13.0969 30.9975 14.1567C30.6707 15.2166 30.038 16.1562 29.1788 16.8575C30.3469 17.4323 31.2937 18.3752 31.8734 19.5409C32.4531 20.7066 32.6336 22.0306 32.3871 23.3089C32.1406 24.5873 31.4808 25.7492 30.5092 26.6158C29.5376 27.4824 28.3081 28.0056 27.01 28.105L26.96 28.3425C26.745 29.345 26.2416 30.2627 25.5117 30.9828C24.7819 31.7029 23.8574 32.1938 22.852 32.3952C21.8467 32.5966 20.8045 32.4996 19.8535 32.1162C18.9026 31.7329 18.0846 31.0798 17.5 30.2375C16.9156 31.0798 16.0976 31.7329 15.1468 32.1163C14.1959 32.4998 13.1537 32.5968 12.1484 32.3956C11.1432 32.1944 10.2186 31.7036 9.48868 30.9837C8.75872 30.2638 8.25518 29.3461 8.04002 28.3437L7.99002 28.1062C6.69064 28.0091 5.45936 27.487 4.48615 26.6205C3.51295 25.7541 2.85193 24.5915 2.60509 23.3121C2.35825 22.0327 2.53932 20.7076 3.12034 19.5413C3.70136 18.375 4.65006 17.4323 5.82002 16.8587C4.9608 16.1575 4.32805 15.2178 4.00133 14.158C3.67461 13.0981 3.66849 11.9653 3.98375 10.902C4.29901 9.83867 4.92157 8.89227 5.77317 8.18176C6.62478 7.47125 7.66742 7.02835 8.77002 6.90873C8.8579 5.92854 9.24234 4.9984 9.87212 4.2422C10.5019 3.48599 11.3471 2.93961 12.2953 2.67584C13.2434 2.41207 14.2493 2.44343 15.1792 2.76574C16.109 3.08805 16.9186 3.68601 17.5 4.47998C17.9495 3.86597 18.5375 3.36666 19.2163 3.02262C19.895 2.67859 20.6453 2.49952 21.4063 2.49998ZM13.5938 4.37498C12.8064 4.37498 12.0513 4.68775 11.4945 5.2445C10.9378 5.80125 10.625 6.55637 10.625 7.34373V7.81248C10.625 8.06112 10.5262 8.29957 10.3504 8.47539C10.1746 8.65121 9.93616 8.74998 9.68752 8.74998H9.37502C8.38046 8.74998 7.42663 9.14507 6.72337 9.84833C6.02011 10.5516 5.62502 11.5054 5.62502 12.5C5.62502 13.4945 6.02011 14.4484 6.72337 15.1516C7.42663 15.8549 8.38046 16.25 9.37502 16.25H10.3125C10.5612 16.25 10.7996 16.3487 10.9754 16.5246C11.1512 16.7004 11.25 16.9388 11.25 17.1875C11.25 17.4361 11.1512 17.6746 10.9754 17.8504C10.7996 18.0262 10.5612 18.125 10.3125 18.125H8.43752C7.36008 18.125 6.32677 18.553 5.5649 19.3149C4.80303 20.0767 4.37502 21.11 4.37502 22.1875C4.37502 23.2649 4.80303 24.2982 5.5649 25.0601C6.32677 25.822 7.36008 26.25 8.43752 26.25H8.75002C8.9366 26.25 9.11894 26.3056 9.27371 26.4098C9.42847 26.5141 9.54862 26.6621 9.61877 26.835L9.66627 26.9912L9.87127 27.9512C10.0475 28.7672 10.5191 29.4892 11.1954 29.9785C11.8717 30.4678 12.7051 30.6898 13.5352 30.6019C14.3653 30.514 15.1336 30.1223 15.6925 29.5022C16.2513 28.882 16.5612 28.0772 16.5625 27.2425V7.34373C16.5625 6.55637 16.2497 5.80125 15.693 5.2445C15.1362 4.68775 14.3811 4.37498 13.5938 4.37498ZM21.4063 4.37498C20.6189 4.37498 19.8638 4.68775 19.307 5.2445C18.7503 5.80125 18.4375 6.55637 18.4375 7.34373V27.2425C18.4374 28.0779 18.7465 28.8839 19.3053 29.505C19.864 30.1262 20.6329 30.5185 21.4637 30.6066C22.2945 30.6946 23.1285 30.472 23.805 29.9817C24.4815 29.4915 24.9526 28.7682 25.1275 27.9512L25.3338 26.9912L25.3813 26.835C25.4514 26.6621 25.5716 26.5141 25.7263 26.4098C25.8811 26.3056 26.0634 26.25 26.25 26.25H26.5625C27.64 26.25 28.6733 25.822 29.4351 25.0601C30.197 24.2982 30.625 23.2649 30.625 22.1875C30.625 21.11 30.197 20.0767 29.4351 19.3149C28.6733 18.553 27.64 18.125 26.5625 18.125H24.6875C24.4389 18.125 24.2004 18.0262 24.0246 17.8504C23.8488 17.6746 23.75 17.4361 23.75 17.1875C23.75 16.9388 23.8488 16.7004 24.0246 16.5246C24.2004 16.3487 24.4389 16.25 24.6875 16.25H25.625C26.6196 16.25 27.5734 15.8549 28.2767 15.1516C28.9799 14.4484 29.375 13.4945 29.375 12.5C29.375 11.5054 28.9799 10.5516 28.2767 9.84833C27.5734 9.14507 26.6196 8.74998 25.625 8.74998H25.3125C25.0639 8.74998 24.8254 8.65121 24.6496 8.47539C24.4738 8.29957 24.375 8.06112 24.375 7.81248V7.34373C24.375 6.55637 24.0622 5.80125 23.5055 5.2445C22.9487 4.68775 22.1936 4.37498 21.4063 4.37498Z" fill="#FDCB22"/>
</svg>
