<svg width="42" height="44" viewBox="0 0 42 44" fill="none" xmlns="http://www.w3.org/2000/svg">
<path d="M4 40C2.9 40 1.95833 39.6083 1.175 38.825C0.391667 38.0417 0 37.1 0 36V8C0 6.9 0.391667 5.95833 1.175 5.175C1.95833 4.39167 2.9 4 4 4H6V0H10V4H26V0H30V4H32C33.1 4 34.0417 4.39167 34.825 5.175C35.6083 5.95833 36 6.9 36 8V20H32V16H4V36H18V40H4ZM32 44C29.5667 44 27.4417 43.2417 25.625 41.725C23.8083 40.2083 22.6667 38.3 22.2 36H25.3C25.7333 37.4667 26.5583 38.6667 27.775 39.6C28.9917 40.5333 30.4 41 32 41C33.9333 41 35.5833 40.3167 36.95 38.95C38.3167 37.5833 39 35.9333 39 34C39 32.0667 38.3167 30.4167 36.95 29.05C35.5833 27.6833 33.9333 27 32 27C31.0333 27 30.1333 27.175 29.3 27.525C28.4667 27.875 27.7333 28.3667 27.1 29H30V32H22V24H25V26.85C25.9 25.9833 26.95 25.2917 28.15 24.775C29.35 24.2583 30.6333 24 32 24C34.7667 24 37.125 24.975 39.075 26.925C41.025 28.875 42 31.2333 42 34C42 36.7667 41.025 39.125 39.075 41.075C37.125 43.025 34.7667 44 32 44ZM4 12H32V8H4V12ZM4 12V8V12Z" fill="#A7723A"/>
</svg>
