<svg width="22" height="16" viewBox="0 0 22 16" fill="none" xmlns="http://www.w3.org/2000/svg">
<path d="M11.0005 1.38535C9.79887 0.494179 8.22562 -0.000306373 6.59284 1.42413e-07C5.72866 0.000627873 4.87317 0.139068 4.07563 0.407349C3.27809 0.67563 2.55427 1.06845 1.94585 1.56319C-0.649536 3.66433 -0.648433 6.95076 1.94806 9.04301L10.0353 15.5625C10.2229 15.8284 10.5846 16 11.0005 16C11.1712 15.9987 11.3392 15.9651 11.4909 15.9019C11.6426 15.8387 11.7739 15.7478 11.8741 15.6363L20.0529 9.04301C22.6494 6.94987 22.6494 3.66433 20.0507 1.55963C19.4424 1.06596 18.7192 0.674041 17.9224 0.40639C17.1257 0.138739 16.2713 0.000630709 15.4081 1.42413e-07C13.7753 -0.000306373 12.2021 0.494179 11.0005 1.38535ZM18.491 2.81694C20.215 4.21385 20.2162 6.39591 18.4932 7.78571L11.0005 13.8259L3.50772 7.78571C1.78481 6.39591 1.78592 4.21385 3.50551 2.8205C4.3438 2.14827 5.4402 1.77837 6.59284 1.77837C7.74549 1.77837 8.83747 2.14827 9.66915 2.81872L10.2207 3.26331C10.4275 3.43001 10.708 3.52365 11.0005 3.52365C11.293 3.52365 11.5735 3.43001 11.7803 3.26331L12.3318 2.81872C13.9996 1.47694 16.8255 1.48049 18.491 2.81694Z" fill="#FDCB22"/>
</svg>
