<svg width="24" height="19" viewBox="0 0 24 19" fill="none" xmlns="http://www.w3.org/2000/svg">
<path d="M0 15.75V2.625C0 1.90312 0.257031 1.28516 0.771094 0.771094C1.28516 0.257031 1.90312 0 2.625 0H21C21.7219 0 22.3398 0.257031 22.8539 0.771094C23.368 1.28516 23.625 1.90312 23.625 2.625V15.75C23.625 16.4719 23.368 17.0898 22.8539 17.6039C22.3398 18.118 21.7219 18.375 21 18.375H2.625C1.90312 18.375 1.28516 18.118 0.771094 17.6039C0.257031 17.0898 0 16.4719 0 15.75ZM9.61406 7.875H21V2.625H9.61406V7.875ZM16.6359 15.75H21V10.5H16.6359V15.75ZM9.61406 15.75H14.0109V10.5H9.61406V15.75ZM2.625 15.75H6.98906V2.625H2.625V15.75Z" fill="#A7723A"/>
</svg>
