<svg width="32" height="33" viewBox="0 0 32 33" fill="none" xmlns="http://www.w3.org/2000/svg">
<path d="M13.3333 9.625L12.6453 11.5418C11.744 14.0553 11.2933 15.312 10.404 16.2291C9.51467 17.1463 8.296 17.611 5.85867 18.5405L4 19.25L5.85867 19.9595C8.296 20.889 9.51467 21.3551 10.404 22.2709C11.2933 23.1866 11.744 24.4448 12.6453 26.9583L13.3333 28.875L14.0213 26.9583C14.9227 24.4448 15.3747 23.188 16.2627 22.2709C17.1507 21.3538 18.3707 20.889 20.808 19.9595L22.6667 19.25L20.808 18.5405C18.3707 17.611 17.152 17.1463 16.2627 16.2291C15.3733 15.312 14.9227 14.0553 14.0213 11.5418L13.3333 9.625ZM24 4.125L23.7053 4.94587C23.3187 6.02387 23.1253 6.56288 22.7453 6.95475C22.364 7.348 21.8413 7.54737 20.796 7.94475L20 8.25L20.7973 8.55388C21.8413 8.95263 22.364 9.152 22.744 9.54387C23.1253 9.93712 23.3187 10.4761 23.704 11.5541L24 12.375L24.2947 11.5541C24.6813 10.4761 24.8747 9.93712 25.2547 9.54525C25.636 9.152 26.1587 8.95263 27.204 8.55525L28 8.25L27.2027 7.94612C26.1587 7.54737 25.636 7.348 25.256 6.95613C24.8747 6.56288 24.6813 6.02387 24.296 4.94587L24 4.125Z" stroke="#FDCB22" stroke-width="1.5" stroke-linejoin="round"/>
</svg>
