<svg width="35" height="35" viewBox="0 0 35 35" fill="none" xmlns="http://www.w3.org/2000/svg">
<path d="M17.5 5.83337C19.0471 5.83337 20.5308 6.44796 21.6248 7.54192C22.7187 8.63588 23.3333 10.1196 23.3333 11.6667C23.3333 13.2138 22.7187 14.6975 21.6248 15.7915C20.5308 16.8855 19.0471 17.5 17.5 17.5C15.9529 17.5 14.4692 16.8855 13.3752 15.7915C12.2812 14.6975 11.6666 13.2138 11.6666 11.6667C11.6666 10.1196 12.2812 8.63588 13.3752 7.54192C14.4692 6.44796 15.9529 5.83337 17.5 5.83337ZM17.5 8.75004C16.7264 8.75004 15.9846 9.05733 15.4376 9.60431C14.8906 10.1513 14.5833 10.8932 14.5833 11.6667C14.5833 12.4403 14.8906 13.1821 15.4376 13.7291C15.9846 14.2761 16.7264 14.5834 17.5 14.5834C18.2735 14.5834 19.0154 14.2761 19.5624 13.7291C20.1094 13.1821 20.4166 12.4403 20.4166 11.6667C20.4166 10.8932 20.1094 10.1513 19.5624 9.60431C19.0154 9.05733 18.2735 8.75004 17.5 8.75004ZM17.5 18.9584C21.3937 18.9584 29.1666 20.898 29.1666 24.7917V29.1667H5.83331V24.7917C5.83331 20.898 13.6062 18.9584 17.5 18.9584ZM17.5 21.7292C13.1687 21.7292 8.60415 23.8584 8.60415 24.7917V26.3959H26.3958V24.7917C26.3958 23.8584 21.8312 21.7292 17.5 21.7292Z" fill="#FDCB22"/>
</svg>
