<svg width="1607" height="1607" viewBox="0 0 1607 1607" fill="none" xmlns="http://www.w3.org/2000/svg">
<path d="M469.368 1143C453.325 1151.96 435.473 1159.21 417.301 1160.25C399.864 1161.25 354.264 1160.56 353.061 1136.25C351.637 1107.45 397.729 1122.92 389.1 1092.67C388.165 1089.39 369.847 1087.45 366.399 1086.73C361.848 1085.75 357.379 1084.42 353.029 1082.76C317.255 1069.15 289.549 1037.5 276.133 1001.71C274.577 998.255 272.176 986.783 269.884 984.444C241.341 955.318 230.139 937.364 230.525 894.357C231.253 813.253 319.655 785.617 358.237 725.829C376.358 697.749 388.117 662.501 400.052 631.179C417.136 590.213 440.577 548.038 468.12 513.327C543.233 418.893 668.475 354.748 790.655 374.444C805.752 376.878 813.724 374.36 828.515 372.447C915.3 361.22 1005.03 393.355 1073.57 445.629C1136 493.227 1178.89 561.471 1207.91 633.505C1219.96 663.496 1229.84 696.054 1247.45 723.496C1287.48 785.547 1367.04 805.791 1376.75 888.903C1380.48 920.886 1371.51 941.908 1352.74 967.959C1349.89 972.266 1338.87 979.823 1337.49 984.586C1324.17 1030.7 1282.16 1083.44 1230.74 1088.43C1217.37 1093.89 1222.46 1106.57 1231.31 1113.87C1245.42 1116.28 1251.82 1121.58 1254.97 1135.11C1252.17 1146.58 1246.97 1151.96 1235.32 1155.34C1201.02 1165.25 1169.26 1160.74 1137.97 1143.96C1127.71 1153.34 1117.21 1165.57 1102.7 1168.63C1084.54 1172.47 1063.48 1173.22 1044.9 1173.21C1039.15 1172.32 1026.46 1172.36 1022.45 1167.62C1000.74 1141.85 1031.62 1135.35 1048.03 1127.16C1057.87 1122.25 1049.12 1104.53 1044.1 1097.68L1043.4 1096.73C1031.34 1102.4 1016.16 1113.48 1002.72 1120.51C957.413 1144.19 900.603 1162.01 849.646 1167.81C820.833 1171.34 791.706 1171.49 762.855 1168.25C699.225 1161.47 614.36 1134.19 563.804 1094.07C561.005 1104.02 554.348 1108.37 556.329 1119.14C557.723 1135.4 577.979 1130.92 585.318 1138.26C601.246 1154.21 588.793 1172.82 568.031 1173.06C549.631 1173.46 531.946 1170.73 513.436 1170.31C494.535 1169.88 482.649 1154.37 470.193 1143.69L469.368 1143Z" fill="#FED700"/>
<path d="M1231.31 1113.87C1215.8 1113.77 1207 1088.3 1230.74 1088.43C1217.37 1093.89 1222.46 1106.57 1231.31 1113.87Z" fill="#773A00"/>
<path d="M802.935 395.563C877.761 375.578 958.762 397.198 1024.18 435.625C1102 481.329 1157.28 556.6 1191.26 639.248C1207.16 677.941 1213.49 707.557 1238.43 742.557C1273.88 792.271 1337.73 814.328 1356.16 876.349C1362.08 896.287 1358.94 926.481 1347.81 943.932C1345.38 947.753 1339.92 955.914 1336.2 958.488C1331.71 962.937 1326.76 967.111 1321.27 970.289C1320.12 977.445 1317.28 983.471 1314.95 990.18C1302.51 1026.01 1280.66 1048.57 1247.95 1066.25L1246.95 1064.96C1258.62 1057.08 1268.84 1038.56 1271.29 1024.86C1274.51 1006.86 1272.07 986.798 1266.89 969.434C1264.19 1004.06 1249.33 1037.67 1222.83 1060.67C1215.43 1067.09 1206.85 1072.45 1199.75 1078.46C1190.4 1107.57 1204.25 1129.47 1233.8 1135.45C1208.15 1144.67 1186.01 1144.22 1160.84 1132.83C1154.71 1130.06 1135.67 1117.84 1132.98 1112.5C1131.48 1111.07 1131.28 1110.67 1129.45 1109.78C1124.37 1134.33 1113.8 1144.89 1090.71 1153.34C1101.92 1145.21 1104.59 1139.86 1109.88 1127.66C1105.31 1132.98 1102.07 1137.34 1096.08 1141.25C1077.47 1153.38 1057.41 1155.6 1036.19 1151.96C1097.67 1140.01 1066.61 1086 1075.52 1043.69C1002.5 1113.31 896.405 1153.33 795.787 1150.99C718.707 1148.82 643.797 1125.01 579.619 1082.28C569.765 1075.73 559.929 1068.22 550.375 1061.22C545.939 1057.98 536.032 1047.12 532.498 1045.52C533.807 1057.57 533.658 1071.06 533.175 1083.23C531.876 1115.99 530.477 1143.71 569.881 1152.11C539.933 1155.49 517.847 1152.43 498.315 1127.78C503.486 1140.62 505.727 1145.38 517.693 1153.61C492.07 1144.34 483.062 1132.35 478.38 1105.61C467.092 1123.62 446.259 1135.3 425.94 1139.77C411.299 1142.98 402.313 1142.43 387.83 1139.7C382.581 1138.53 378.076 1136.94 372.986 1135.24C401.059 1132.81 417.181 1104.66 407.869 1079.03C400.878 1072.88 391.365 1067.24 383.755 1060.47C356.388 1036.11 343.324 1004.61 340.709 968.837C335.483 984.028 333.075 1003.32 334.739 1019.33C336.98 1040.89 346.802 1054.67 363.079 1068.04C329.086 1054.07 307.867 1028.6 293.381 995.304C290.364 988.368 287.979 975.13 284.459 969.677C278.916 966.35 273.578 962.238 269.604 957.107C256.358 945.399 248.36 924.849 247.513 907.398C243.509 824.89 332.45 798.211 371.018 739.608C397.825 698.879 406.926 654.892 428.894 611.844C439.321 591.546 449.287 572.215 462.201 553.41C509.82 484.065 580.825 425.904 662.284 402.171C687.141 394.928 708.743 389.239 734.947 388.398C754.581 387.767 784.14 390.024 802.935 395.563Z" fill="#562820"/>
<path d="M407.869 1079.03C407.566 1070.24 390.184 1049.4 384.655 1040.1C367.112 1010.6 361.296 978.277 360.531 944.144C359.747 909.179 373.138 879.205 385.144 847.08L414.084 771.617C418.846 759.068 426.498 744.247 427.154 731.087L427.806 731.34C427.65 739.666 425.635 749.96 424.7 758.563C418.93 811.661 405.386 862.805 409.255 916.782C410.332 931.809 412.035 949.841 416.949 964.09C427.973 996.058 444.288 1016.77 442.116 1052.91C440.44 1080.78 431.752 1103.27 411.616 1123.39C404.5 1130.51 395.95 1133.78 387.83 1139.7C382.581 1138.53 378.076 1136.94 372.986 1135.24C401.059 1132.81 417.181 1104.66 407.869 1079.03Z" fill="#4B1F1A"/>
<path d="M1075.52 1043.69C1081.21 1030.15 1109.51 1006.37 1119.83 995.053C1147.62 964.561 1166.5 931.675 1177.07 891.587C1178.33 886.824 1181.37 864.39 1182.35 862.758C1183.53 864.5 1178.22 907.374 1177.33 912.639C1174.91 927.077 1167.13 951.072 1159.3 963.329C1140.4 992.872 1114.52 1016.31 1113.84 1054.22C1113.62 1066.38 1117.59 1079.62 1122.53 1090.72C1125.14 1096.68 1132.88 1107.24 1132.98 1112.5C1131.48 1111.07 1131.28 1110.67 1129.45 1109.78C1124.37 1134.33 1113.8 1144.89 1090.71 1153.34C1101.92 1145.21 1104.59 1139.86 1109.88 1127.66C1105.31 1132.98 1102.07 1137.34 1096.08 1141.25C1077.47 1153.38 1057.41 1155.6 1036.19 1151.96C1097.67 1140.01 1066.61 1086 1075.52 1043.69Z" fill="#4B1F1A"/>
<path d="M426.46 886.659L427.951 884.234C436.545 923.248 457.717 960.865 483.908 991.742C492.278 1001.61 531.015 1035.29 532.498 1045.52C533.807 1057.57 533.658 1071.06 533.175 1083.23C531.876 1115.99 530.477 1143.71 569.881 1152.11C539.933 1155.49 517.847 1152.43 498.315 1127.78C503.486 1140.62 505.727 1145.38 517.693 1153.61C492.07 1144.34 483.062 1132.35 478.38 1105.61C478.472 1102.95 486.096 1089.22 487.873 1085.2C492.261 1075.1 494.243 1064.11 493.664 1053.12C491.757 1010.72 462.674 992.731 444.676 958.166C432.696 935.152 428.336 912.106 426.46 886.659Z" fill="#4B1F1A"/>
<path d="M340.878 790.2L342.218 791.989C309.027 825.4 280.053 883.277 280.376 930.687C280.486 937.89 281.031 945.078 282.008 952.21C282.387 955.043 283.761 963.243 283.649 965.385C279.36 960.583 276.975 956.801 273.404 951.394C266.464 938.361 260.118 921.616 260.704 906.723C262.961 849.293 306.508 824.153 340.878 790.2Z" fill="#FED700"/>
<path d="M1268.79 792.248C1294.82 816.243 1323.73 838.206 1338.52 871.397C1351.69 900.948 1349.13 929.526 1330.56 956.055L1323.24 965.314C1322.94 962.631 1325.52 946.741 1325.91 941.947C1330.14 888.731 1304.03 832.996 1267.97 794.406L1268.79 792.248Z" fill="#FED700"/>
<path d="M269.604 957.107L269.906 955.765C271.122 957.115 271.406 957.334 272.848 958.448C274.78 957.899 274.124 958.496 275.066 956.879L272.812 953.003L273.404 951.394C276.975 956.801 279.36 960.583 283.649 965.385C284.305 967.386 284.565 967.621 284.459 969.677C278.916 966.35 273.578 962.238 269.604 957.107Z" fill="#1C1207"/>
<path d="M1330.56 956.055L1331.12 957.523L1330.7 958.189C1329.56 960.041 1328.96 960.677 1328.8 962.858L1329.1 961.634C1333.81 961.156 1329.64 959.68 1336.2 958.488C1331.71 962.937 1326.76 967.111 1321.27 970.289C1321.45 967.417 1321.46 967.621 1323.24 965.314L1330.56 956.055Z" fill="#1C1207"/>
<path d="M426.46 886.659C425.118 881.088 424.647 869.812 425.12 863.959C425.416 864.547 427.621 882.045 427.951 884.235L426.46 886.659Z" fill="#4B1F1A"/>
<path d="M1257.06 782.341C1262.76 786.175 1264.24 787.328 1268.79 792.248L1267.97 794.406C1263.45 789.957 1261.06 787.273 1257.06 782.341Z" fill="#BA7A02"/>
<path d="M340.878 790.2C344.465 786.849 346.626 785.06 350.534 782.133C347.759 785.79 345.609 788.827 342.218 791.989L340.878 790.2Z" fill="#BA7A02"/>
<path d="M803.029 469.786C804.12 470.947 812.359 499.309 813.779 503.747C826.648 543.839 846.798 570.17 876.655 598.73C939.938 659.271 1034.77 648.58 1096.08 708.67C1127.3 739.39 1144.62 789.501 1143.94 832.886C1141.21 1008.6 971.034 1125.54 806.411 1126.1C798.737 1126.12 791.008 1126.11 783.365 1125.71C672.414 1119.96 558.226 1060.99 500.801 963.816C456.335 888.574 444.881 782.066 507.143 712.937C545.72 670.103 598.155 662.966 649.758 645.301C665.907 639.746 683.941 630.58 698.793 621.901C742.731 596.779 776.077 556.583 792.648 508.76C797.521 494.721 799.365 483.697 803.029 469.786Z" fill="#FEF4C5"/>
<path d="M625.695 687.281C691.219 685.318 745.993 736.714 748.201 802.229C750.407 867.749 699.217 922.715 633.709 925.163C567.855 927.627 512.536 876.105 510.317 810.24C508.098 744.381 559.824 689.254 625.695 687.281Z" fill="#4B1F1A"/>
<path d="M623.352 720.145C668.802 716.645 708.581 750.427 712.489 795.842C716.397 841.258 682.974 881.339 637.594 885.655C591.634 890.025 550.929 856.081 546.971 810.083C543.013 764.088 577.321 723.69 623.352 720.145Z" fill="#FEF4C5"/>
<path d="M594.535 750.387C606.507 750.662 621.092 769.176 631.442 778.323C638.661 771.432 654.861 754.673 662.707 750.46C678.5 750.628 682.887 755.084 683.115 770.521C678.796 779.893 662.606 793.809 654.667 801.272C663.587 810.209 678.875 822.018 683.166 833.302C687.607 844.978 677.393 850.949 667.902 853.091C654.958 851.679 641.394 834.675 631.25 824.976C623.946 831.128 604.693 853.719 598.028 852.926C552.446 847.473 599.433 810.201 607.866 801.64C600.806 795.857 591.307 786.849 585.314 779.966C573.988 766.954 576.891 753.181 594.535 750.387Z" fill="#4B1F1A"/>
<path d="M964.506 687.998C1029.94 680.24 1089.22 727.122 1096.75 792.577C1104.28 858.034 1057.18 917.151 991.703 924.449C926.544 931.715 867.788 884.909 860.294 819.774C852.801 754.64 899.402 695.717 964.506 687.998Z" fill="#4B1F1A"/>
<path d="M971.709 720.176C1017.35 716.776 1057.13 750.961 1060.63 796.595C1064.14 842.223 1030.04 882.077 984.413 885.686C938.643 889.311 898.633 855.076 895.118 809.299C891.602 763.522 925.924 723.586 971.709 720.176Z" fill="#FEF4C5"/>
<path d="M939.656 750.267C940.362 750.231 941.068 750.209 941.782 750.198C952.563 750.078 969.434 769.707 977.885 777.972C984.625 771.509 1004.23 750.773 1011.76 750.319C1017.1 750.037 1022.33 751.984 1026.18 755.696C1040.71 769.734 1010.68 791.934 1000.85 801.162C1007.79 808.224 1015.31 814.697 1022.36 821.634C1035.26 834.338 1034.99 849.913 1014.64 852.793C1000.16 851.467 989.396 833.647 977.822 824.843C969.135 831.874 950.923 853.797 942.418 852.636C897.95 846.57 947.259 808.318 954.611 801.279C941.727 789.619 904.793 760.753 939.656 750.267Z" fill="#4B1F1A"/>
<path d="M949.566 977.861C954.282 977.9 960.857 978.795 962.992 983.581C971.85 1003.45 927.313 1020.7 914.836 1026.72C917.724 1033.8 918.493 1037.38 919.152 1044.85C915.809 1053.57 908.591 1061.11 898.358 1056.89C889.727 1053.34 886.894 1045.6 883.771 1037.51C859.973 1042.42 844.491 1045.97 819.994 1047.15C820.127 1058.01 821.649 1075.77 804.787 1075.61C788.191 1075.44 789.439 1059.66 789.501 1047.59C762.666 1045.38 750.657 1043.68 724.14 1038.05C723.904 1038.79 723.661 1039.52 723.41 1040.26C721.016 1047.2 717.511 1054.34 710.429 1057.54C706.549 1059.29 702.123 1059.41 698.159 1057.85C694.29 1056.33 691.241 1053.24 689.762 1049.36C686.732 1041.51 690.338 1034.11 693.542 1027.09C685.54 1023.65 674.001 1018.08 666.574 1013.7C659.601 1009.72 646.762 1003.43 643.286 996.152C641.884 993.193 641.752 989.788 642.921 986.736C644.237 983.362 647.107 980.945 650.476 979.76C653.664 978.622 657.143 978.614 660.339 979.721C665.336 981.431 676.631 989.388 681.817 992.377C689.213 996.638 695.224 999.408 702.949 1002.92C706.114 996.505 709.002 990.753 716.001 987.748C720.221 985.975 724.992 986.061 729.145 987.991C740.207 993.17 738.55 1004.63 734.155 1013.83C756.187 1019.33 766.919 1020.17 789.337 1021.71C789.266 1014.72 788.67 1009.77 793.778 1004.21C796.571 1001.16 800.534 999.432 804.669 999.471C808.679 999.471 812.508 1001.11 815.262 1004.02C820.472 1009.49 820.103 1014.61 820.151 1021.53C841.399 1019.86 853.687 1018.87 874.638 1013.06C861.369 988.752 888.362 968.241 904.746 1002.25C914.891 998.176 919.191 995.814 928.545 989.953C934.649 986.124 943.1 980.16 949.566 977.861Z" fill="#4B1F1A"/>
<path d="M786.771 908.151C794.445 907.743 802.394 908.081 810.091 907.829C822.803 907.414 839.281 908.12 841.117 924.386C841.737 929.989 840.128 935.607 836.629 940.024C832.658 944.952 829.088 945.886 823.164 946.443C818.479 946.576 809.361 946.066 803.437 946.726C782.001 949.119 754.511 942.276 770.117 914.978C772.993 909.948 780.595 908.701 786.771 908.151Z" fill="#4B1F1A"/>
<path d="M1247.95 1066.25C1245.09 1067.96 1243.47 1068.71 1240.4 1070.08L1239.49 1068.69L1238.2 1070.55L1237.93 1070.29C1239.91 1067.93 1244.02 1066.36 1246.95 1064.96L1247.95 1066.25Z" fill="#DAB303"/>
</svg>
